<mxfile host="app.diagrams.net" agent="Mozilla/5.0 (Windows NT 10.0; Win64; x64) AppleWebKit/537.36 (KHTML, like Gecko) Chrome/135.0.0.0 Safari/537.36" version="26.2.14">
  <diagram name="Page-1" id="X8ADTHubLzP3hr-LpWpE">
    <mxGraphModel dx="595" dy="321" grid="1" gridSize="5" guides="1" tooltips="1" connect="1" arrows="1" fold="1" page="1" pageScale="1" pageWidth="827" pageHeight="1169" math="0" shadow="0">
      <root>
        <mxCell id="0" />
        <mxCell id="1" parent="0" />
        <mxCell id="Pbngu6moprH94buiZck2-2" value="" style="rounded=0;whiteSpace=wrap;html=1;" parent="1" vertex="1">
          <mxGeometry x="300" y="160" width="180" height="320" as="geometry" />
        </mxCell>
        <mxCell id="qHEhH27fJNV_azGHG-a4-1" value="Suspects" style="text;html=1;align=center;verticalAlign=middle;whiteSpace=wrap;rounded=0;" vertex="1" parent="1">
          <mxGeometry x="320" y="205" width="60" height="30" as="geometry" />
        </mxCell>
        <mxCell id="qHEhH27fJNV_azGHG-a4-2" value="Weapons" style="text;html=1;align=center;verticalAlign=middle;whiteSpace=wrap;rounded=0;" vertex="1" parent="1">
          <mxGeometry x="390" y="205" width="60" height="30" as="geometry" />
        </mxCell>
        <mxCell id="qHEhH27fJNV_azGHG-a4-3" value="&lt;font size=&quot;1&quot;&gt;your current location is: crime scene&lt;/font&gt;" style="text;html=1;align=center;verticalAlign=middle;whiteSpace=wrap;rounded=0;" vertex="1" parent="1">
          <mxGeometry x="300" y="160" width="180" height="30" as="geometry" />
        </mxCell>
        <mxCell id="qHEhH27fJNV_azGHG-a4-5" value="" style="whiteSpace=wrap;html=1;aspect=fixed;" vertex="1" parent="1">
          <mxGeometry x="414" y="250" width="45" height="45" as="geometry" />
        </mxCell>
        <mxCell id="qHEhH27fJNV_azGHG-a4-7" value="" style="group" vertex="1" connectable="0" parent="1">
          <mxGeometry x="325" y="250" width="45" height="45" as="geometry" />
        </mxCell>
        <mxCell id="qHEhH27fJNV_azGHG-a4-4" value="" style="whiteSpace=wrap;html=1;aspect=fixed;" vertex="1" parent="qHEhH27fJNV_azGHG-a4-7">
          <mxGeometry width="45" height="45" as="geometry" />
        </mxCell>
        <mxCell id="qHEhH27fJNV_azGHG-a4-6" value="" style="shape=actor;whiteSpace=wrap;html=1;" vertex="1" parent="qHEhH27fJNV_azGHG-a4-7">
          <mxGeometry x="2.5" y="5" width="40" height="40" as="geometry" />
        </mxCell>
        <mxCell id="qHEhH27fJNV_azGHG-a4-8" value="" style="group" vertex="1" connectable="0" parent="1">
          <mxGeometry x="325" y="315" width="45" height="45" as="geometry" />
        </mxCell>
        <mxCell id="qHEhH27fJNV_azGHG-a4-9" value="" style="whiteSpace=wrap;html=1;aspect=fixed;" vertex="1" parent="qHEhH27fJNV_azGHG-a4-8">
          <mxGeometry width="45" height="45" as="geometry" />
        </mxCell>
        <mxCell id="qHEhH27fJNV_azGHG-a4-10" value="" style="shape=actor;whiteSpace=wrap;html=1;" vertex="1" parent="qHEhH27fJNV_azGHG-a4-8">
          <mxGeometry x="2.5" y="5" width="40" height="40" as="geometry" />
        </mxCell>
        <mxCell id="qHEhH27fJNV_azGHG-a4-11" value="" style="group" vertex="1" connectable="0" parent="1">
          <mxGeometry x="325" y="380" width="45" height="45" as="geometry" />
        </mxCell>
        <mxCell id="qHEhH27fJNV_azGHG-a4-12" value="" style="whiteSpace=wrap;html=1;aspect=fixed;" vertex="1" parent="qHEhH27fJNV_azGHG-a4-11">
          <mxGeometry width="45" height="45" as="geometry" />
        </mxCell>
        <mxCell id="qHEhH27fJNV_azGHG-a4-13" value="" style="shape=actor;whiteSpace=wrap;html=1;" vertex="1" parent="qHEhH27fJNV_azGHG-a4-11">
          <mxGeometry x="2.5" y="5" width="40" height="40" as="geometry" />
        </mxCell>
        <mxCell id="qHEhH27fJNV_azGHG-a4-14" value="" style="whiteSpace=wrap;html=1;aspect=fixed;" vertex="1" parent="1">
          <mxGeometry x="414" y="315" width="45" height="45" as="geometry" />
        </mxCell>
        <mxCell id="qHEhH27fJNV_azGHG-a4-15" value="" style="whiteSpace=wrap;html=1;aspect=fixed;" vertex="1" parent="1">
          <mxGeometry x="414" y="380" width="45" height="45" as="geometry" />
        </mxCell>
        <mxCell id="qHEhH27fJNV_azGHG-a4-16" value="" style="group" vertex="1" connectable="0" parent="1">
          <mxGeometry x="420" y="325" width="39" height="24.32" as="geometry" />
        </mxCell>
        <mxCell id="qHEhH27fJNV_azGHG-a4-17" value="" style="rounded=0;whiteSpace=wrap;html=1;" vertex="1" parent="qHEhH27fJNV_azGHG-a4-16">
          <mxGeometry x="10.97956040367081" y="4.5079209789549335" width="7.0051098990822975" height="5.784136050622546" as="geometry" />
        </mxCell>
        <mxCell id="qHEhH27fJNV_azGHG-a4-18" value="" style="rounded=0;whiteSpace=wrap;html=1;rotation=48;" vertex="1" parent="qHEhH27fJNV_azGHG-a4-16">
          <mxGeometry x="4.058511823377503" y="3.3552105916422503" width="6.9350588000914755" height="20.584114059154967" as="geometry" />
        </mxCell>
        <mxCell id="qHEhH27fJNV_azGHG-a4-19" value="" style="endArrow=none;html=1;rounded=0;exitX=0;exitY=0;exitDx=0;exitDy=0;entryX=0.25;entryY=0;entryDx=0;entryDy=0;" edge="1" parent="qHEhH27fJNV_azGHG-a4-16" source="qHEhH27fJNV_azGHG-a4-18" target="qHEhH27fJNV_azGHG-a4-17">
          <mxGeometry width="50" height="50" relative="1" as="geometry">
            <mxPoint x="17.98467030275311" as="sourcePoint" />
            <mxPoint x="24.989780201835405" as="targetPoint" />
          </mxGeometry>
        </mxCell>
        <mxCell id="qHEhH27fJNV_azGHG-a4-20" value="" style="endArrow=none;html=1;rounded=0;entryX=0;entryY=0;entryDx=0;entryDy=0;" edge="1" parent="qHEhH27fJNV_azGHG-a4-16" target="qHEhH27fJNV_azGHG-a4-18">
          <mxGeometry width="50" height="50" relative="1" as="geometry">
            <mxPoint x="10.97956040367081" as="sourcePoint" />
            <mxPoint x="-28.249055031190057" y="-6.514872099722531" as="targetPoint" />
            <Array as="points" />
          </mxGeometry>
        </mxCell>
        <mxCell id="qHEhH27fJNV_azGHG-a4-21" value="" style="endArrow=none;html=1;rounded=0;" edge="1" parent="qHEhH27fJNV_azGHG-a4-16">
          <mxGeometry width="50" height="50" relative="1" as="geometry">
            <mxPoint x="17.98467030275311" y="4.5079209789549335" as="sourcePoint" />
            <mxPoint x="39" y="4.116822811830994" as="targetPoint" />
          </mxGeometry>
        </mxCell>
        <mxCell id="qHEhH27fJNV_azGHG-a4-22" value="" style="endArrow=none;html=1;rounded=0;" edge="1" parent="qHEhH27fJNV_azGHG-a4-16">
          <mxGeometry width="50" height="50" relative="1" as="geometry">
            <mxPoint x="17.98467030275311" y="7.204439920704239" as="sourcePoint" />
            <mxPoint x="39" y="7.204439920704239" as="targetPoint" />
          </mxGeometry>
        </mxCell>
        <mxCell id="qHEhH27fJNV_azGHG-a4-23" value="" style="group" vertex="1" connectable="0" parent="1">
          <mxGeometry x="420" y="400" width="35" height="5" as="geometry" />
        </mxCell>
        <mxCell id="qHEhH27fJNV_azGHG-a4-24" value="" style="endArrow=none;html=1;rounded=0;" edge="1" parent="qHEhH27fJNV_azGHG-a4-23">
          <mxGeometry width="50" height="50" relative="1" as="geometry">
            <mxPoint as="sourcePoint" />
            <mxPoint x="11.666666666666668" as="targetPoint" />
          </mxGeometry>
        </mxCell>
        <mxCell id="qHEhH27fJNV_azGHG-a4-25" value="" style="endArrow=none;html=1;rounded=0;" edge="1" parent="qHEhH27fJNV_azGHG-a4-23">
          <mxGeometry width="50" height="50" relative="1" as="geometry">
            <mxPoint x="11.666666666666668" y="5" as="sourcePoint" />
            <mxPoint x="11.666666666666668" as="targetPoint" />
          </mxGeometry>
        </mxCell>
        <mxCell id="qHEhH27fJNV_azGHG-a4-26" value="" style="endArrow=none;html=1;rounded=0;" edge="1" parent="qHEhH27fJNV_azGHG-a4-23">
          <mxGeometry width="50" height="50" relative="1" as="geometry">
            <mxPoint x="11.666666666666668" as="sourcePoint" />
            <mxPoint x="35" as="targetPoint" />
          </mxGeometry>
        </mxCell>
        <mxCell id="qHEhH27fJNV_azGHG-a4-27" value="" style="endArrow=none;html=1;rounded=0;" edge="1" parent="qHEhH27fJNV_azGHG-a4-23">
          <mxGeometry width="50" height="50" relative="1" as="geometry">
            <mxPoint x="11.666666666666668" y="5" as="sourcePoint" />
            <mxPoint x="35" as="targetPoint" />
            <Array as="points">
              <mxPoint x="23.333333333333336" y="5" />
            </Array>
          </mxGeometry>
        </mxCell>
        <mxCell id="qHEhH27fJNV_azGHG-a4-29" value="" style="group;rotation=0;" vertex="1" connectable="0" parent="1">
          <mxGeometry x="429" y="257.5" width="15" height="30" as="geometry" />
        </mxCell>
        <mxCell id="qHEhH27fJNV_azGHG-a4-30" value="" style="endArrow=none;html=1;rounded=0;" edge="1" parent="qHEhH27fJNV_azGHG-a4-29">
          <mxGeometry width="50" height="50" relative="1" as="geometry">
            <mxPoint y="30" as="sourcePoint" />
            <mxPoint x="16" y="30" as="targetPoint" />
          </mxGeometry>
        </mxCell>
        <mxCell id="qHEhH27fJNV_azGHG-a4-31" value="" style="endArrow=none;html=1;rounded=0;" edge="1" parent="qHEhH27fJNV_azGHG-a4-29">
          <mxGeometry width="50" height="50" relative="1" as="geometry">
            <mxPoint x="8" y="18" as="sourcePoint" />
            <mxPoint x="7" y="26" as="targetPoint" />
          </mxGeometry>
        </mxCell>
        <mxCell id="qHEhH27fJNV_azGHG-a4-32" value="" style="endArrow=none;html=1;rounded=0;" edge="1" parent="qHEhH27fJNV_azGHG-a4-29">
          <mxGeometry width="50" height="50" relative="1" as="geometry">
            <mxPoint x="4" y="13" as="sourcePoint" />
            <mxPoint x="12" y="13" as="targetPoint" />
          </mxGeometry>
        </mxCell>
        <mxCell id="qHEhH27fJNV_azGHG-a4-33" value="" style="endArrow=none;html=1;rounded=0;" edge="1" parent="qHEhH27fJNV_azGHG-a4-29">
          <mxGeometry width="50" height="50" relative="1" as="geometry">
            <mxPoint x="8" y="13" as="sourcePoint" />
            <mxPoint x="8" as="targetPoint" />
          </mxGeometry>
        </mxCell>
        <mxCell id="qHEhH27fJNV_azGHG-a4-34" value="" style="endArrow=none;html=1;rounded=0;" edge="1" parent="qHEhH27fJNV_azGHG-a4-29">
          <mxGeometry width="50" height="50" relative="1" as="geometry">
            <mxPoint x="16" y="30" as="sourcePoint" />
            <mxPoint x="7" y="26" as="targetPoint" />
          </mxGeometry>
        </mxCell>
        <mxCell id="qHEhH27fJNV_azGHG-a4-35" value="" style="endArrow=none;html=1;rounded=0;" edge="1" parent="qHEhH27fJNV_azGHG-a4-29">
          <mxGeometry width="50" height="50" relative="1" as="geometry">
            <mxPoint y="30" as="sourcePoint" />
            <mxPoint x="7" y="26" as="targetPoint" />
          </mxGeometry>
        </mxCell>
        <mxCell id="qHEhH27fJNV_azGHG-a4-36" value="" style="endArrow=none;html=1;rounded=0;" edge="1" parent="qHEhH27fJNV_azGHG-a4-29">
          <mxGeometry width="50" height="50" relative="1" as="geometry">
            <mxPoint x="8" y="18" as="sourcePoint" />
            <mxPoint x="12" y="13" as="targetPoint" />
          </mxGeometry>
        </mxCell>
        <mxCell id="qHEhH27fJNV_azGHG-a4-37" value="" style="endArrow=none;html=1;rounded=0;" edge="1" parent="qHEhH27fJNV_azGHG-a4-29">
          <mxGeometry width="50" height="50" relative="1" as="geometry">
            <mxPoint x="8" y="18" as="sourcePoint" />
            <mxPoint x="4" y="13" as="targetPoint" />
          </mxGeometry>
        </mxCell>
      </root>
    </mxGraphModel>
  </diagram>
</mxfile>
